<?xml version="1.0" encoding="UTF-8"?>
<mxfile host="app.diagrams.net" agent="Mozilla/5.0 (Windows NT 10.0; Win64; x64) AppleWebKit/537.36 (KHTML, like Gecko) Chrome/137.0.0.0 Safari/537.36 OPR/121.0.0.0" version="28.2.7">
  <diagram name="Página-1" id="gcNsbuUWF9kvICnC2apT">
    <mxGraphModel dx="1277" dy="752" grid="1" gridSize="10" guides="1" tooltips="1" connect="1" arrows="1" fold="1" page="1" pageScale="1" pageWidth="827" pageHeight="1169" math="0" shadow="0">
      <root>
        <mxCell id="0" />
        <mxCell id="1" parent="0" />
        <mxCell id="2" value="                GerenciamentoParticipantes" style="shape=folder;tabPosition=left;align=left;spacingLeft=10;fontStyle=1;verticalAlign=top;container=1;collapsible=0;folderBackgroundColor=#E9E9E9;strokeColor=#36393D;fontColor=#36393D;" vertex="1" parent="1">
          <mxGeometry x="40" y="80" width="300" height="440" as="geometry" />
        </mxCell>
        <mxCell id="3" value="Pais" style="swimlane;fontStyle=1;align=center;verticalAlign=top;childLayout=stackLayout;horizontal=1;startSize=30;horizontalStack=0;resizeParent=1;resizeParentMax=0;resizeLast=0;collapsible=0;marginBottom=0;fillColor=#DAE8FC;strokeColor=#6C8EBF;" vertex="1" parent="2">
          <mxGeometry x="40" y="52.38095238095239" width="220" height="187.14285714285717" as="geometry" />
        </mxCell>
        <mxCell id="4" value="- nome: String&lt;br&gt;- sigla: String&lt;br&gt;- medalhasOuro: int&lt;br&gt;- medalhasPrata: int&lt;br&gt;- medalhasBronze: int" style="text;strokeColor=none;fillColor=none;align=left;verticalAlign=top;spacingLeft=4;spacingRight=4;overflow=hidden;rotatable=0;points=[[0,0.5],[1,0.5]];portConstraint=eastwest;whiteSpace=wrap;html=1;" vertex="1" parent="3">
          <mxGeometry y="30" width="220" height="94.28571428571429" as="geometry" />
        </mxCell>
        <mxCell id="5" value="+ adicionarMedalha(tipo: String)&lt;br&gt;+ getTotalMedalhas(): int" style="text;strokeColor=none;fillColor=none;align=left;verticalAlign=top;spacingLeft=4;spacingRight=4;overflow=hidden;rotatable=0;points=[[0,0.5],[1,0.5]];portConstraint=eastwest;whiteSpace=wrap;html=1;" vertex="1" parent="3">
          <mxGeometry y="124.28571428571429" width="220" height="62.85714285714286" as="geometry" />
        </mxCell>
        <mxCell id="6" value="Atleta" style="swimlane;fontStyle=1;align=center;verticalAlign=top;childLayout=stackLayout;horizontal=1;startSize=30;horizontalStack=0;resizeParent=1;resizeParentMax=0;resizeLast=0;collapsible=0;marginBottom=0;fillColor=#DAE8FC;strokeColor=#6C8EBF;" vertex="1" parent="2">
          <mxGeometry x="40" y="272.3809523809524" width="220" height="124.28571428571428" as="geometry" />
        </mxCell>
        <mxCell id="7" value="- idAtleta: int&lt;br&gt;- nome: String&lt;br&gt;- dataNascimento: Date" style="text;strokeColor=none;fillColor=none;align=left;verticalAlign=top;spacingLeft=4;spacingRight=4;overflow=hidden;rotatable=0;points=[[0,0.5],[1,0.5]];portConstraint=eastwest;whiteSpace=wrap;html=1;" vertex="1" parent="6">
          <mxGeometry y="30" width="220" height="52.38095238095239" as="geometry" />
        </mxCell>
        <mxCell id="8" value="+ seInscrever(comp: Competição)" style="text;strokeColor=none;fillColor=none;align=left;verticalAlign=top;spacingLeft=4;spacingRight=4;overflow=hidden;rotatable=0;points=[[0,0.5],[1,0.5]];portConstraint=eastwest;whiteSpace=wrap;html=1;" vertex="1" parent="6">
          <mxGeometry y="82.38095238095238" width="220" height="41.904761904761905" as="geometry" />
        </mxCell>
        <mxCell id="9" value="               GerenciamentoCompeticoes" style="shape=folder;tabPosition=left;align=left;spacingLeft=10;fontStyle=1;verticalAlign=top;container=1;collapsible=0;folderBackgroundColor=#E9E9E9;strokeColor=#36393D;fontColor=#36393D;" vertex="1" parent="1">
          <mxGeometry x="460" y="130" width="690" height="450" as="geometry" />
        </mxCell>
        <mxCell id="19" value="                Relatorios" style="shape=folder;tabPosition=left;align=left;spacingLeft=10;fontStyle=1;verticalAlign=top;container=1;collapsible=0;folderBackgroundColor=#E9E9E9;strokeColor=#36393D;fontColor=#36393D;" vertex="1" parent="1">
          <mxGeometry x="60" y="540" width="300" height="190" as="geometry" />
        </mxCell>
        <mxCell id="20" value="GeradorRelatorioMedalhas" style="swimlane;fontStyle=1;align=center;verticalAlign=top;childLayout=stackLayout;horizontal=1;startSize=30;horizontalStack=0;resizeParent=1;resizeParentMax=0;resizeLast=0;collapsible=0;marginBottom=0;fillColor=#E6D9F8;strokeColor=#B095C8;" vertex="1" parent="19">
          <mxGeometry x="40" y="50" width="220" height="110" as="geometry" />
        </mxCell>
        <mxCell id="21" value="&lt;div&gt;&lt;br&gt;&lt;/div&gt;&lt;div&gt;&lt;br&gt;&lt;/div&gt;" style="text;strokeColor=none;fillColor=none;align=left;verticalAlign=top;spacingLeft=4;spacingRight=4;overflow=hidden;rotatable=0;points=[[0,0.5],[1,0.5]];portConstraint=eastwest;whiteSpace=wrap;html=1;" vertex="1" parent="20">
          <mxGeometry y="30" width="220" height="30" as="geometry" />
        </mxCell>
        <mxCell id="22" value="+ gerarRelatorioPorPais(): String" style="text;strokeColor=none;fillColor=none;align=left;verticalAlign=top;spacingLeft=4;spacingRight=4;overflow=hidden;rotatable=0;points=[[0,0.5],[1,0.5]];portConstraint=eastwest;whiteSpace=wrap;html=1;" vertex="1" parent="20">
          <mxGeometry y="60" width="220" height="50" as="geometry" />
        </mxCell>
        <mxCell id="23" value="" style="endArrow=none;html=1;rounded=0;labelBackgroundColor=default;" edge="1" parent="1" source="3" target="6">
          <mxGeometry width="50" height="50" relative="1" as="geometry">
            <mxPoint x="190" y="280" as="sourcePoint" />
            <mxPoint x="190" y="320" as="targetPoint" />
          </mxGeometry>
        </mxCell>
        <mxCell id="24" value="1" style="edgeLabel;html=1;align=center;verticalAlign=middle;resizable=0;points=[];imageAspect=0;" connectable="0" vertex="1" parent="23">
          <mxGeometry x="-0.2" y="2" relative="1" as="geometry">
            <mxPoint x="-12" y="-3" as="offset" />
          </mxGeometry>
        </mxCell>
        <mxCell id="25" value="&lt;font style=&quot;font-size: 15px;&quot;&gt;*&lt;/font&gt;" style="edgeLabel;html=1;align=center;verticalAlign=middle;resizable=1;points=[];fillOpacity=100;imageAspect=1;autosize=0;fixedWidth=0;resizeWidth=1;resizeHeight=1;overflow=block;" connectable="0" vertex="1" parent="23">
          <mxGeometry x="0.2" y="-2" relative="1" as="geometry">
            <mxPoint x="12" y="1" as="offset" />
          </mxGeometry>
        </mxCell>
        <mxCell id="26" value="" style="endArrow=none;html=1;rounded=0;" edge="1" parent="1" source="6" target="10">
          <mxGeometry width="50" height="50" relative="1" as="geometry">
            <mxPoint x="370" y="400" as="sourcePoint" />
            <mxPoint x="490" y="220" as="targetPoint" />
          </mxGeometry>
        </mxCell>
        <mxCell id="27" value="&lt;font style=&quot;font-size: 19px;&quot;&gt;*&lt;/font&gt;" style="edgeLabel;html=1;align=center;verticalAlign=middle;resizable=0;points=[];" connectable="0" vertex="1" parent="26">
          <mxGeometry x="-0.8308" y="-1" relative="1" as="geometry">
            <mxPoint as="offset" />
          </mxGeometry>
        </mxCell>
        <mxCell id="28" value="&lt;font style=&quot;font-size: 18px;&quot;&gt;*&lt;/font&gt;" style="edgeLabel;html=1;align=center;verticalAlign=middle;resizable=0;points=[];" connectable="0" vertex="1" parent="26">
          <mxGeometry x="0.8462" relative="1" as="geometry">
            <mxPoint as="offset" />
          </mxGeometry>
        </mxCell>
        <mxCell id="38" value="" style="endArrow=open;endFill=0;html=1;rounded=0;dashed=1;entryX=0;entryY=0.5;entryDx=0;entryDy=0;exitX=0.006;exitY=1.011;exitDx=0;exitDy=0;exitPerimeter=0;" edge="1" parent="1" source="21" target="4">
          <mxGeometry width="50" height="50" relative="1" as="geometry">
            <mxPoint x="40" y="665" as="sourcePoint" />
            <mxPoint x="370" y="250" as="targetPoint" />
            <Array as="points">
              <mxPoint x="20" y="650" />
              <mxPoint x="20" y="205" />
            </Array>
          </mxGeometry>
        </mxCell>
        <mxCell id="39" value="" style="endArrow=classic;html=1;rounded=0;endFill=1;" edge="1" parent="1" source="16" target="6">
          <mxGeometry width="50" height="50" relative="1" as="geometry">
            <mxPoint x="450" y="600" as="sourcePoint" />
            <mxPoint x="390" y="520" as="targetPoint" />
          </mxGeometry>
        </mxCell>
        <mxCell id="13" value="Local" style="swimlane;fontStyle=1;align=center;verticalAlign=top;childLayout=stackLayout;horizontal=1;startSize=30;horizontalStack=0;resizeParent=1;resizeParentMax=0;resizeLast=0;collapsible=0;marginBottom=0;fillColor=#DAE8FC;strokeColor=#6C8EBF;" vertex="1" parent="1">
          <mxGeometry x="870" y="205" width="240" height="130" as="geometry" />
        </mxCell>
        <mxCell id="14" value="- idLocal: int&lt;br&gt;- nome: String&lt;br&gt;- capacidade: int" style="text;strokeColor=none;fillColor=none;align=left;verticalAlign=top;spacingLeft=4;spacingRight=4;overflow=hidden;rotatable=0;points=[[0,0.5],[1,0.5]];portConstraint=eastwest;whiteSpace=wrap;html=1;" vertex="1" parent="13">
          <mxGeometry y="30" width="240" height="50" as="geometry" />
        </mxCell>
        <mxCell id="15" value="+ isDisponivel(data, horario): boolean" style="text;strokeColor=none;fillColor=none;align=left;verticalAlign=top;spacingLeft=4;spacingRight=4;overflow=hidden;rotatable=0;points=[[0,0.5],[1,0.5]];portConstraint=eastwest;whiteSpace=wrap;html=1;" vertex="1" parent="13">
          <mxGeometry y="80" width="240" height="50" as="geometry" />
        </mxCell>
        <mxCell id="30" value="" style="endArrow=none;html=1;rounded=0;" edge="1" parent="1" source="10" target="13">
          <mxGeometry width="50" height="50" relative="1" as="geometry">
            <mxPoint x="640" y="330" as="sourcePoint" />
            <mxPoint x="640" y="40" as="targetPoint" />
          </mxGeometry>
        </mxCell>
        <mxCell id="31" value="&lt;font style=&quot;font-size: 18px; line-height: 0%;&quot;&gt;*&lt;/font&gt;" style="edgeLabel;html=1;align=center;verticalAlign=middle;resizable=1;points=[];imageAspect=1;resizeHeight=1;resizeWidth=1;" connectable="0" vertex="1" parent="30">
          <mxGeometry x="-0.2" y="2" relative="1" as="geometry">
            <mxPoint x="-50" y="22" as="offset" />
          </mxGeometry>
        </mxCell>
        <mxCell id="32" value="1" style="edgeLabel;html=1;align=center;verticalAlign=middle;resizable=0;points=[];" connectable="0" vertex="1" parent="30">
          <mxGeometry x="0.2" y="-2" relative="1" as="geometry">
            <mxPoint x="50" y="8" as="offset" />
          </mxGeometry>
        </mxCell>
        <mxCell id="10" value="Competicao" style="swimlane;fontStyle=1;align=center;verticalAlign=top;childLayout=stackLayout;horizontal=1;startSize=30;horizontalStack=0;resizeParent=1;resizeParentMax=0;resizeLast=0;collapsible=0;marginBottom=0;fillColor=#DAE8FC;strokeColor=#6C8EBF;" vertex="1" parent="1">
          <mxGeometry x="480" y="180" width="240" height="180" as="geometry" />
        </mxCell>
        <mxCell id="11" value="- idCompeticao: int&lt;br&gt;- modalidade: String&lt;br&gt;- data: Date&lt;br&gt;- horario: Time" style="text;strokeColor=none;fillColor=none;align=left;verticalAlign=top;spacingLeft=4;spacingRight=4;overflow=hidden;rotatable=0;points=[[0,0.5],[1,0.5]];portConstraint=eastwest;whiteSpace=wrap;html=1;" vertex="1" parent="10">
          <mxGeometry y="30" width="240" height="70" as="geometry" />
        </mxCell>
        <mxCell id="12" value="+ adicionarAtleta(atleta: Atleta)&lt;br&gt;+ setLocal(local: Local)&lt;br&gt;+ registrarResultado(...): Resultado" style="text;strokeColor=none;fillColor=none;align=left;verticalAlign=top;spacingLeft=4;spacingRight=4;overflow=hidden;rotatable=0;points=[[0,0.5],[1,0.5]];portConstraint=eastwest;whiteSpace=wrap;html=1;" vertex="1" parent="10">
          <mxGeometry y="100" width="240" height="80" as="geometry" />
        </mxCell>
        <mxCell id="34" value="" style="endArrow=none;html=1;rounded=0;" edge="1" parent="1" source="10" target="16">
          <mxGeometry width="50" height="50" relative="1" as="geometry">
            <mxPoint x="740" y="110" as="sourcePoint" />
            <mxPoint x="740" y="630" as="targetPoint" />
          </mxGeometry>
        </mxCell>
        <mxCell id="35" value="1" style="edgeLabel;html=1;align=center;verticalAlign=middle;resizable=0;points=[];" connectable="0" vertex="1" parent="34">
          <mxGeometry x="-0.2" y="2" relative="1" as="geometry">
            <mxPoint x="-17" y="-10" as="offset" />
          </mxGeometry>
        </mxCell>
        <mxCell id="36" value="1" style="edgeLabel;html=1;align=center;verticalAlign=middle;resizable=0;points=[];" connectable="0" vertex="1" parent="34">
          <mxGeometry x="0.2" y="-2" relative="1" as="geometry">
            <mxPoint x="16" y="10" as="offset" />
          </mxGeometry>
        </mxCell>
        <mxCell id="16" value="Resultado" style="swimlane;fontStyle=1;align=center;verticalAlign=top;childLayout=stackLayout;horizontal=1;startSize=30;horizontalStack=0;resizeParent=1;resizeParentMax=0;resizeLast=0;collapsible=0;marginBottom=0;fillColor=#DAE8FC;strokeColor=#6C8EBF;" vertex="1" parent="1">
          <mxGeometry x="490" y="410" width="240" height="140" as="geometry" />
        </mxCell>
        <mxCell id="17" value="- idResultado: int" style="text;strokeColor=none;fillColor=none;align=left;verticalAlign=top;spacingLeft=4;spacingRight=4;overflow=hidden;rotatable=0;points=[[0,0.5],[1,0.5]];portConstraint=eastwest;whiteSpace=wrap;html=1;" vertex="1" parent="16">
          <mxGeometry y="30" width="240" height="30" as="geometry" />
        </mxCell>
        <mxCell id="18" value="+ getVencedor(): Atleta&lt;br&gt;+ getSegundoLugar(): Atleta&lt;br&gt;+ getTerceiroLugar(): Atleta" style="text;strokeColor=none;fillColor=none;align=left;verticalAlign=top;spacingLeft=4;spacingRight=4;overflow=hidden;rotatable=0;points=[[0,0.5],[1,0.5]];portConstraint=eastwest;whiteSpace=wrap;html=1;" vertex="1" parent="16">
          <mxGeometry y="60" width="240" height="80" as="geometry" />
        </mxCell>
      </root>
    </mxGraphModel>
  </diagram>
</mxfile>
